<?xml version="1.0" standalone="no"?>
<!DOCTYPE svg PUBLIC "-//W3C//DTD SVG 20010904//EN"
 "http://www.w3.org/TR/2001/REC-SVG-20010904/DTD/svg10.dtd">
<svg version="1.0" xmlns="http://www.w3.org/2000/svg"
 width="1280.000000pt" height="1280.000000pt" viewBox="0 0 1280.000000 1280.000000"
 preserveAspectRatio="xMidYMid meet">

<g transform="translate(0.000000,1280.000000) scale(0.100000,-0.100000)"
fill="#000000" stroke="none">
<path d="M2914 6859 c3 -17 6 -35 6 -40 0 -5 11 -9 25 -9 20 0 25 5 25 24 0
13 3 31 6 40 5 13 -1 16 -31 16 -37 0 -37 -1 -31 -31z"/>
<path d="M10060 6870 c0 -5 9 -14 20 -20 22 -12 65 -74 73 -106 2 -10 5 16 6
59 l1 77 -50 0 c-27 0 -50 -4 -50 -10z"/>
<path d="M11250 6874 c0 -3 14 -17 31 -32 18 -14 40 -44 50 -67 l19 -40 0 73
0 72 -50 0 c-27 0 -50 -3 -50 -6z"/>
<path d="M7653 6836 c32 -31 39 -33 81 -29 46 6 53 14 40 47 -5 13 -22 16 -81
16 l-75 0 35 -34z"/>
<path d="M3590 6831 c0 -18 6 -21 38 -20 20 0 57 4 82 8 l45 7 -60 7 c-32 4
-69 10 -82 13 -19 5 -23 2 -23 -15z"/>
<path d="M4147 6836 c-67 -11 -68 -11 -34 -21 18 -6 52 -9 75 -7 33 3 42 8 42
23 0 10 -3 18 -7 18 -5 -1 -39 -7 -76 -13z"/>
<path d="M4850 6831 c0 -23 22 -25 130 -12 l55 7 -70 7 c-38 4 -80 10 -92 13
-19 5 -23 2 -23 -15z"/>
<path d="M5365 6839 c-22 -4 -58 -9 -80 -10 -33 -1 -28 -3 25 -10 36 -4 75
-11 88 -14 17 -4 22 -1 22 14 0 26 -8 29 -55 20z"/>
<path d="M8390 6831 c0 -18 6 -21 38 -20 20 0 57 4 82 8 l45 7 -60 7 c-32 4
-69 10 -82 13 -19 5 -23 2 -23 -15z"/>
<path d="M1188 6288 l-3 -553 -60 0 -60 0 -3 183 -2 182 -235 0 -235 0 0 -293
c0 -284 1 -294 22 -337 18 -35 35 -51 73 -70 l50 -25 385 0 c435 0 454 3 508
73 l27 35 3 679 2 678 -235 0 -235 0 -2 -552z"/>
<path d="M1782 6161 c3 -667 3 -680 24 -708 11 -15 42 -39 70 -53 l49 -25 390
0 c388 0 390 0 437 23 29 14 56 38 70 60 l23 37 3 673 3 672 -241 0 -240 0 -2
-552 -3 -553 -55 0 -55 0 -3 553 -2 552 -235 0 -235 0 2 -679z"/>
<path d="M3040 6790 l0 -50 -60 0 -60 0 2 -177 3 -178 58 -3 57 -3 0 -432 c0
-429 0 -433 23 -477 17 -35 34 -51 72 -70 l50 -25 390 0 390 0 49 25 c95 48
91 25 94 481 l3 399 -236 0 -235 0 -2 -272 -3 -273 -57 -3 -58 -3 0 326 0 325
295 0 295 0 0 180 0 180 -295 0 -295 0 0 50 0 50 -240 0 -240 0 0 -50z"/>
<path d="M4300 6790 l0 -50 -60 0 -60 0 2 -177 3 -178 58 -3 57 -3 0 -432 c0
-429 0 -433 23 -477 17 -35 34 -51 72 -70 l50 -25 390 0 390 0 49 25 c95 48
91 25 94 481 l3 399 -236 0 -235 0 -2 -272 -3 -273 -57 -3 -58 -3 0 326 0 325
295 0 295 0 0 180 0 180 -295 0 -295 0 0 50 0 50 -240 0 -240 0 0 -50z"/>
<path d="M5490 6105 l0 -735 235 0 235 0 0 735 0 735 -235 0 -235 0 0 -735z"/>
<path d="M6733 6830 c-48 -11 -96 -43 -121 -80 l-23 -34 3 -342 c3 -391 0
-377 94 -424 47 -24 57 -25 272 -28 l223 -4 -3 -91 -3 -92 -55 0 -55 0 -3 48
-3 47 -235 0 -234 0 0 -169 c0 -159 1 -170 23 -202 12 -19 43 -45 67 -59 l45
-25 395 0 396 0 48 25 c35 18 55 37 70 65 20 37 21 59 24 333 4 326 -3 383
-46 425 -56 54 -88 60 -329 65 l-223 4 0 89 0 89 60 0 60 0 0 -40 0 -40 240 0
240 0 0 130 c0 172 -11 219 -60 263 -25 23 -55 39 -89 46 -59 12 -726 14 -778
1z"/>
<path d="M7840 6790 l0 -50 -55 0 -55 0 0 -180 0 -180 55 0 54 0 3 -442 c3
-509 0 -491 93 -538 l50 -25 390 0 390 0 49 25 c95 48 91 25 94 481 l3 399
-236 0 -235 0 0 -275 0 -275 -60 0 -60 0 0 325 0 325 295 0 295 0 0 180 0 180
-295 0 -295 0 0 50 0 50 -240 0 -240 0 0 -50z"/>
<path d="M8970 6833 c-49 -6 -53 -15 -16 -39 l32 -21 22 34 c14 20 17 32 10
31 -7 0 -29 -3 -48 -5z"/>
<path d="M9179 6831 c-48 -10 -97 -40 -123 -74 -21 -28 -21 -34 -21 -652 0
-613 0 -624 21 -652 11 -15 42 -39 70 -53 l49 -25 390 0 391 0 49 25 c30 16
57 39 70 60 19 34 20 50 20 640 0 594 0 606 -21 645 -15 28 -35 47 -70 65
l-48 25 -371 2 c-203 1 -386 -2 -406 -6z m441 -731 l0 -371 -57 3 -58 3 -3
368 -2 367 60 0 60 0 0 -370z"/>
<path d="M10220 6105 l0 -735 240 0 240 0 0 295 0 295 60 0 59 0 3 -469 c3
-535 -2 -503 94 -551 l49 -25 628 -3 627 -3 0 181 0 180 -462 2 -463 3 -5 382
-5 381 -24 26 c-13 14 -37 28 -53 31 l-29 7 43 21 c24 12 49 33 55 47 9 18 13
97 13 275 0 240 -1 253 -22 295 -18 35 -35 51 -73 70 l-50 25 -462 3 -463 3 0
-736z m600 255 l0 -110 -60 0 -60 0 0 110 0 110 60 0 60 0 0 -110z"/>
<path d="M11410 6105 l0 -735 405 0 405 0 0 180 0 180 -165 0 -165 0 0 95 0
95 160 0 160 0 0 185 0 185 -160 0 -160 0 0 90 0 90 165 0 165 0 0 185 0 185
-405 0 -405 0 0 -735z"/>
<path d="M1081 6406 c-27 -66 -105 -156 -167 -192 -24 -14 -44 -30 -44 -35 0
-5 48 -9 106 -9 58 0 114 -5 125 -10 18 -10 19 -7 18 77 -1 48 -4 119 -8 157
l-6 70 -24 -58z"/>
<path d="M11960 6380 l0 -30 123 0 c147 0 169 5 165 34 -3 20 -9 21 -145 24
l-143 3 0 -31z"/>
<path d="M7641 6323 l-44 -4 38 -26 c23 -16 46 -44 61 -76 24 -52 24 -54 24
-397 0 -319 -2 -348 -20 -387 l-19 -43 71 0 c63 0 69 2 63 18 -33 78 -34 88
-35 500 l0 412 -34 0 c-19 0 -40 1 -48 3 -7 2 -33 2 -57 0z"/>
<path d="M2910 5905 c0 -387 -1 -418 -19 -464 l-20 -49 74 0 73 0 -19 42 c-17
38 -19 72 -19 464 l0 422 -35 0 -35 0 0 -415z"/>
<path d="M4178 5919 c3 -406 1 -431 -34 -516 -4 -10 12 -13 65 -13 l72 0 -18
33 c-16 29 -18 72 -21 465 l-3 432 -32 0 -32 0 3 -401z"/>
<path d="M11332 6130 c-10 -17 -10 -25 2 -48 l15 -27 1 48 c0 26 -1 47 -3 47
-1 0 -8 -9 -15 -20z"/>
<path d="M6540 5932 l0 -42 53 0 c43 1 49 2 32 12 -11 6 -35 24 -52 41 l-33
31 0 -42z"/>
<path d="M11960 5830 l0 -31 143 3 142 3 0 25 0 25 -142 3 -143 3 0 -31z"/>
<path d="M10150 5464 c0 -21 -36 -73 -74 -106 l-31 -27 58 -1 57 0 0 75 c0 41
-2 75 -5 75 -3 0 -5 -7 -5 -16z"/>
<path d="M1701 5440 c-7 -17 -24 -44 -38 -60 l-25 -30 82 0 82 0 -31 35 c-17
20 -34 47 -37 60 -8 33 -16 31 -33 -5z"/>
<path d="M8957 5440 c-8 -19 -27 -47 -42 -62 l-28 -28 83 0 82 0 -28 33 c-15
17 -33 45 -39 62 l-13 29 -15 -34z"/>
<path d="M5405 5420 c-3 -11 -25 -35 -47 -55 l-42 -35 55 0 54 0 0 55 c0 56
-9 71 -20 35z"/>
<path d="M10620 5313 c-63 -2 -126 -6 -140 -9 -22 -5 -17 -9 38 -30 69 -26
101 -45 180 -112 l52 -44 0 101 c0 56 -3 100 -7 99 -5 -1 -60 -4 -123 -5z"/>
</g>
</svg>
